<?xml version="1.0" standalone="no"?>
<!DOCTYPE svg PUBLIC "-//W3C//DTD SVG 20010904//EN"
 "http://www.w3.org/TR/2001/REC-SVG-20010904/DTD/svg10.dtd">
<svg version="1.0" xmlns="http://www.w3.org/2000/svg"
 width="80.000000pt" height="80.000000pt" viewBox="0 0 80.000000 80.000000"
 preserveAspectRatio="xMidYMid meet">
<metadata>
Created by potrace 1.11, written by Peter Selinger 2001-2013
</metadata>
<g transform="translate(0.000000,80.000000) scale(0.100000,-0.100000)"
fill="#000000" stroke="none">
<path d="M0 400 l0 -400 400 0 400 0 0 400 0 400 -400 0 -400 0 0 -400z m344
236 c43 -56 51 -81 37 -114 -10 -24 -10 -34 1 -51 7 -12 16 -21 20 -21 4 0 39
45 78 99 38 55 74 103 80 106 15 10 30 -31 23 -67 -13 -69 -56 -131 -118 -172
-32 -21 -54 -52 -107 -149 -61 -112 -68 -122 -95 -122 -51 0 -42 34 42 155
l76 110 -21 30 c-16 22 -29 30 -53 30 -18 0 -39 6 -47 13 -26 21 -70 85 -70
101 0 30 29 16 60 -29 17 -25 35 -43 41 -40 5 4 -5 26 -22 51 -28 42 -33 74
-10 74 5 0 22 -20 38 -45 15 -25 34 -45 41 -45 17 0 16 5 -18 52 -16 22 -30
47 -30 55 0 24 27 14 54 -21z m190 -356 c84 -105 95 -142 45 -148 -24 -3 -33
8 -93 104 -46 74 -65 112 -60 126 3 10 12 18 19 16 7 -2 48 -46 89 -98z"/>
</g>
</svg>
